<svg width="220" height="220" viewBox="0 0 220 220" fill="none" xmlns="http://www.w3.org/2000/svg">
  <path d="M109.964 16L182.955 70.0634C207.808 88.4769 213.803 123.101 196.67 148.851L163.24 199.092C157.456 207.783 144.182 206.573 140.109 196.994C133.54 181.549 120.383 168.65 103.847 159.66L87.833 150.955C80.0469 146.723 75.4924 138.359 76.1588 129.521L82.2583 48.6315C83.3777 33.7876 97.9354 24.6554 110.742 32.2478L121.744 38.7712C136.681 47.6277 155.034 47.2209 169.564 37.7118L175.651 33.7279C183.399 28.6572 193.216 35.4044 191.445 44.4955C187.965 62.3594 174.281 77.7083 156.396 83.5782L134.614 90.7252L110.61 104.223L109.964 16Z" fill="url(#paint0_linear)"/>
  <path d="M109.964 16L36.9735 70.0634C12.1199 88.4769 6.12483 123.101 23.258 148.851L56.6882 199.092C62.4718 207.783 75.7459 206.573 79.819 196.994C86.3876 181.549 99.5449 168.65 116.081 159.66L132.095 150.955C139.881 146.723 144.436 138.359 143.769 129.521L137.67 48.6315C136.551 33.7876 121.993 24.6554 109.186 32.2478L98.1841 38.7712C83.2471 47.6277 64.8939 47.2209 50.364 37.7118L44.2769 33.7279C36.529 28.6572 26.7118 35.4044 28.4828 44.4955C31.9628 62.3594 45.6464 77.7083 63.5322 83.5782L85.3134 90.7252L109.318 104.223L109.964 16Z" fill="url(#paint1_linear)"/>
  <path d="M101 61C108.5 75.5 110 90.5 109.5 114V168" stroke="white" stroke-width="12" stroke-linecap="round"/>
  <path d="M102 57C85.5 70 65.5 76 43 75" stroke="white" stroke-width="12" stroke-linecap="round"/>
  <path d="M118 57C134.5 70 154.5 76 177 75" stroke="white" stroke-width="12" stroke-linecap="round"/>
  <defs>
    <linearGradient id="paint0_linear" x1="144" y1="16" x2="144" y2="208" gradientUnits="userSpaceOnUse">
      <stop stop-color="#1D9B4F"/>
      <stop offset="1" stop-color="#34CF64"/>
    </linearGradient>
    <linearGradient id="paint1_linear" x1="76" y1="16" x2="76" y2="208" gradientUnits="userSpaceOnUse">
      <stop stop-color="#1D9B4F"/>
      <stop offset="1" stop-color="#34CF64"/>
    </linearGradient>
  </defs>
</svg>
